<?xml version="1.0" encoding="utf-8"?>
<!-- Generator: Adobe Illustrator 24.2.0, SVG Export Plug-In . SVG Version: 6.00 Build 0)  -->
<svg version="1.1" id="Calque_1" xmlns="http://www.w3.org/2000/svg" xmlns:xlink="http://www.w3.org/1999/xlink" x="0px" y="0px"
	 viewBox="0 0 140 60" style="enable-background:new 0 0 140 60;" xml:space="preserve">
<g>
	<g>
		<path d="M46.9,8.4h6.7v6.7h-6.7V8.4z M39.2,40.1c0,7.6-2.9,11.5-8.1,11.5h-2.5v-6.7c0,0-0.5,0-0.1,0.1c0.3,0,0.9,0.1,1.1,0.1
			c2.3,0,3.8-1.2,3.8-3.6V17.6l5.8,0.1V40.1z M39.2,15.1h-5.8V8.4h5.8V15.1z M53.6,51.6h-6.7v-34l6.7,0.1V51.6z M66.1,29.5v22.1
			h-6.7V8.4h5.4l8.5,25.8c0.3,1,1.2,2.5,1.8,4.6C74.6,36,74.8,34,74.8,33V8.4h6.7v43.2h-7.7 M94.9,29.5v22.1h-7.7V8.4h5.6l8.5,25.8
			c0.3,1,1.1,2.5,1.6,4.6c-0.5-2.8-0.4-4.8-0.4-5.8V8.4h6.7v43.2h-7.7 M131.4,49.4c-1.9,2-4.4,3.1-7.5,3.1c-3.5,0-6.2-1.1-8.2-3.4
			c-1.8-2.1-2.8-4.9-2.9-8.5l6.4-1c0.2,4.3,1.7,6.4,4.5,6.4c1.2,0,2.2-0.4,3-1.2c0.7-0.8,1.1-1.8,1.1-3c0-2.3-1.8-5.2-5.4-8.7
			l-0.6-0.6c-2.8-2.8-4.6-4.8-5.6-6.3c-1.8-2.5-2.6-5.2-2.6-7.8c0-1.9,0.4-4.2,1.2-5.2h-1.6V7.5h5.8v2.2c1-1.3,3.2-2,5.6-2
			c3,0,5.1,1.1,6.9,3.2c1.7,1.9,2.4,4.4,2.7,7.5l-6.6,0.9c-0.2-3.6-1.5-5.4-3.7-5.4c-2.4,0-3.6,1.3-3.6,4c0,2.5,2.1,5.8,6.3,9.8
			c0.1,0.1,0.2,0.2,0.4,0.4c2.6,2.5,4.4,4.5,5.3,6.1c1.5,2.3,2.2,4.9,2.2,7.6C134.3,44.8,133.4,47.4,131.4,49.4z"/>
	</g>
	<path d="M26.8,39.5c0,4-1.5,6.9-3,8.8c-1.6,2.1-4.7,3.2-8.4,3.2c-0.1,0-0.6,0-0.6,0h-9V8.4h8.7c0.2,0,1.1,0,1.3,0
		c6.9,0.2,11.1,4.1,11.1,11.8v19.3H26.8z M15.8,14.7c-0.6-0.1-2-0.5-2.8-0.5h-0.6v30.7h2.5l0,0c2.3,0,5.1-1.2,5.1-4.2V19.9
		C20.1,17.1,18.1,15.2,15.8,14.7z"/>
</g>
</svg>
