<?xml version="1.0" encoding="utf-8"?>
<!-- Generator: Adobe Illustrator 24.2.1, SVG Export Plug-In . SVG Version: 6.00 Build 0)  -->
<svg version="1.1" id="Calque_28" xmlns="http://www.w3.org/2000/svg" xmlns:xlink="http://www.w3.org/1999/xlink" x="0px" y="0px"
	 viewBox="0 0 140 60" style="enable-background:new 0 0 140 60;" xml:space="preserve">
<g>
	<path d="M8.6,22.4v1.3l0.3-0.1l1-0.6c2.3-1.2,5.2-0.8,7,1.1c1.1,1,1.8,2.4,2,3.8c0.5,2.5,0,5.1-1.4,7.2c-1,1.6-2.5,2.6-4.3,3
		c-1.4,0.3-3,0.2-4.3-0.3c-0.1,0-0.1,0-0.2,0c0,0.1,0,0.2,0,0.3v2.2c0,0.4,0,0.4,0.4,0.4h1.3c0.3,0,0.4,0,0.4,0.4s0,0.8,0,1.2
		s-0.1,0.3-0.3,0.3h-8c-0.5,0-0.5,0-0.5-0.5c0-0.3,0-0.6,0-0.9s0-0.4,0.4-0.4h0.4c0.2,0,0.3,0,0.3-0.3c0-0.1,0-0.1,0-0.2V25.7
		l-0.4,0.1L2,25.9c-0.1,0-0.2,0-0.2-0.2v-1.4c0-0.2,0.1-0.2,0.3-0.2l1.8-0.5l4.4-1.1L8.6,22.4z M13.3,31.2c0-0.4-0.1-1.1-0.1-1.7
		c-0.1-0.8-0.4-1.6-0.8-2.3c-0.4-0.8-1.2-1.3-2-1.5c-0.4-0.1-0.9-0.1-1.4,0c-0.3,0.1-0.4,0.1-0.4,0.5c0,2.5,0,5.1,0,7.6
		c0,0.4,0.1,0.8,0.2,1.2c0.2,0.6,0.7,1,1.4,1.1c0.4,0.1,0.9,0,1.3-0.1c0.4-0.1,0.8-0.4,1.1-0.8c0.2-0.3,0.4-0.7,0.5-1
		C13.2,33.1,13.3,32.1,13.3,31.2z"/>
	<path d="M66.7,37.8c-0.4,0-0.9-0.1-1.3-0.1c-0.8,0-1.6,0-2.4,0c-0.2,0-0.3-0.1-0.4-0.2c-0.2-0.5-0.4-1-0.6-1.5
		c-0.1-0.2,0-0.2,0.2-0.3s0.4-0.1,0.6-0.1c0.6-0.2,1.3-0.4,1.9-0.6c0.6-0.2,1.2-0.5,1.9-0.8c-0.1-0.2-0.3-0.1-0.4-0.2
		c-0.8-0.2-1.6-0.5-2.3-0.9c-1.2-0.6-2.1-1.7-2.5-3c-0.6-2.3,0.2-4.7,2.1-6.2c1-0.8,2.3-1.3,3.5-1.4c1.3-0.2,2.7-0.1,4,0.2l0.7,0.1
		h0.1c0.1-0.3,0.2-0.6,0.3-1c0-0.1,0.1-0.3,0.1-0.4c0.2-0.7,0.8-1.1,1.5-1.2c0.7-0.1,1.4-0.1,2.1,0c0,0,0.1,0,0.1,0
		c0,0.3-0.1,0.6-0.2,0.9c-0.1,0.3-0.2,0.6-0.2,0.9s-0.2,0.6-0.2,0.9c-0.1,0-0.1,0-0.1,0c-0.3-0.3-0.8-0.3-1.2-0.2
		c-0.3,0.1-0.5,0.4-0.4,0.7c0,0,0,0.1,0.1,0.1c0.1,0.1,0.2,0.2,0.3,0.3c0.3,0.3,0.6,0.5,0.9,0.8c1.2,1.1,1.8,2.8,1.6,4.5
		c-0.1,1.7-1.1,3.3-2.6,4.1c-1.1,0.6-2.2,1.1-3.4,1.4c-0.7,0.2-1.3,0.3-2,0.5c-0.1,0-0.1,0.1-0.2,0.1l0.8,0.1
		c1.2,0.1,2.4,0.4,3.6,0.7c0.5,0.2,1.1,0.4,1.6,0.7c0.3,0.1,0.5,0.3,0.7,0.5c1.3,1,1.5,2.8,0.5,4.1c-0.4,0.6-1,1-1.6,1.3
		c-1.1,0.6-2.4,0.9-3.7,0.9c-0.7,0-1.3,0-2,0c-0.9,0-1.8-0.2-2.6-0.6c-0.4-0.2-0.8-0.5-1.1-0.8c-0.7-0.9-0.7-2.2,0.1-3
		c0.5-0.6,1.2-0.9,2-1.1l0.3-0.1L66.7,37.8z M71.3,30.5c-0.1-0.6-0.1-1.1-0.2-1.7c-0.2-1.1-0.5-2.1-1.1-3c-0.2-0.4-0.5-0.8-0.9-1.1
		c-0.5-0.4-1.1-0.6-1.8-0.4c-0.4,0.1-0.7,0.3-0.8,0.7c-0.1,0.2-0.1,0.4-0.2,0.5c-0.1,0.7-0.1,1.4,0.1,2.1c0.2,1.1,0.5,2.2,1,3.2
		c0.2,0.4,0.5,0.7,0.8,1c0.5,0.5,1.2,0.6,1.9,0.5c0.5-0.1,0.8-0.4,0.9-0.9C71.2,31.3,71.2,30.9,71.3,30.5z M69,38.4
		c-0.2,0.1-0.3,0.2-0.4,0.4c-0.1,0.3-0.2,0.5-0.2,0.8c-0.1,0.4-0.1,0.9,0,1.3c0.1,0.7,0.8,1.2,1.5,1.1c0.1,0,0.2,0,0.2-0.1
		c0.4-0.1,0.7-0.5,0.7-0.9c0.1-0.7-0.2-1.5-0.7-1.9C69.7,39,69.3,38.7,69,38.4z"/>
	<path d="M104.6,37.7v-1.6c0-0.2,0.1-0.3,0.3-0.3h0.8h0.2c0-0.1,0-0.2,0-0.4v-8c0.1-0.7-0.5-1.4-1.2-1.4c0,0-0.1,0-0.1,0
		c-0.6-0.1-1.3,0-1.9,0.4c-0.3,0.2-0.6,0.4-0.9,0.6c-0.1,0.1-0.2,0.3-0.2,0.4c0,0.1,0,0.1,0,0.2v8.2h1.1c0.1,0.6,0.1,1.2,0.1,1.8
		c-0.2,0.1-7.3,0.1-8,0v-1.8h1V25.7c-0.3,0-0.6,0.2-1,0.2v-1.7l6.8-1.8c0,0.4,0,0.8,0,1.2v1.2l0.3-0.2c0.5-0.4,1.1-0.8,1.6-1.1
		c0.8-0.6,1.7-0.9,2.7-1.1c1-0.2,2-0.1,2.9,0.3c1.2,0.4,2.1,1.4,2.3,2.7c0.1,0.5,0.1,0.9,0.1,1.4c0,2.9,0,5.8,0,8.7v0.5h0.9
		c0.1,0.6,0.1,1.2,0.1,1.8C112.3,37.8,105,37.8,104.6,37.7z"/>
	<path d="M125.5,21.6l1.7,0.5c0.2,0.1,0.3,0.2,0.2,0.4l-0.2,0.4c0,0,0,0,0,0.1l0.3-0.1c1.9-0.7,3.9-0.8,5.9-0.3
		c0.2,0.1,0.4,0.1,0.6,0.2c1.4,0.5,2.5,1.8,2.7,3.3c0.1,0.5,0.1,1.1,0.1,1.6c0,2.6,0,5.1,0,7.7c0,0.2,0,0.3,0,0.5h0.7
		c0.2,0,0.3,0.1,0.3,0.3c0,0.4,0,0.9,0,1.3c0,0.2,0,0.3-0.3,0.3h-5.8c-0.2,0-0.3,0-0.4-0.3s-0.1-0.5-0.2-0.8c0-0.1,0-0.2-0.1-0.3
		c-0.6,0.5-1.2,0.9-1.9,1.2c-1.4,0.7-3.1,0.9-4.6,0.3c-1.8-0.6-3-2.2-3-4.1c-0.1-1.1,0.1-2.1,0.6-3.1c0.8-1.7,2.5-2.8,4.3-2.8
		c1.3-0.1,2.7-0.1,4-0.1h0.4c0.1-0.5,0-1-0.1-1.5c-0.2-0.4-0.5-0.8-1-0.9c-0.5-0.1-1.1-0.1-1.6,0c-0.9,0.1-1.8,0.5-2.4,1.3l-0.3,0.4
		l-0.1,0.1l-1.9-0.6L125.5,21.6z M131,31.8L131,31.8c0-0.5,0-1.1,0-1.6c0-0.2,0-0.3-0.3-0.3s-0.6,0-1,0c-1.2,0.1-2.1,1-2.3,2.1
		c-0.1,0.6-0.1,1.3,0.1,1.9c0.2,0.9,1.2,1.5,2.1,1.2c0,0,0.1,0,0.1,0c0.5-0.1,0.8-0.4,1-0.8c0.1-0.3,0.2-0.6,0.2-0.9
		C131,32.7,131,32.2,131,31.8z"/>
	<path d="M46.8,26.6l2-5l0.7,0.2c0.3,0.1,0.6,0.2,0.9,0.2s0.2,0.1,0.2,0.3s-0.1,0.4-0.2,0.6l0.3-0.1c1.9-0.7,3.9-0.8,5.9-0.3
		c0.2,0.1,0.5,0.1,0.7,0.2c1.4,0.6,2.4,1.8,2.6,3.4c0.1,0.4,0.1,0.9,0.1,1.3c0,2.6,0,5.2,0,7.9v0.5h0.6c0.4,0,0.4,0,0.4,0.4
		s0,0.8,0,1.1s0,0.3-0.3,0.3h-5.7c-0.4,0-0.4,0-0.5-0.4s-0.1-0.5-0.1-0.7c0-0.1,0-0.2-0.1-0.3c-0.1,0.1-0.2,0.2-0.3,0.2
		c-0.9,0.7-1.9,1.2-2.9,1.5c-1.3,0.3-2.8,0.2-4-0.5c-1.3-0.7-2.2-2-2.2-3.5c-0.1-1,0-2.1,0.4-3c0.7-1.9,2.5-3.1,4.4-3.1
		c1.3-0.1,2.7-0.1,4-0.1h0.4c0-0.4,0-0.8,0-1.2c-0.1-0.6-0.6-1-1.2-1.1c-0.5-0.1-1-0.1-1.6,0c-0.9,0.1-1.8,0.6-2.4,1.3l-0.4,0.4
		L46.8,26.6z M54.3,31.8L54.3,31.8c0-0.5,0-1.1,0-1.6c0-0.2,0-0.3-0.3-0.3c-0.3,0-0.7,0-1,0c-1,0.1-1.9,0.8-2.2,1.7
		c-0.3,0.8-0.2,1.8,0.2,2.6c0.2,0.4,0.5,0.7,0.9,0.8c0.3,0.1,0.7,0.1,1,0.1c0.6,0,1.1-0.4,1.2-1c0.1-0.3,0.2-0.6,0.2-0.9
		C54.3,32.7,54.3,32.2,54.3,31.8z"/>
	<path d="M28.4,36.4c-0.9,0.8-2,1.4-3.1,1.7c-1,0.3-2.2,0.2-3.2-0.1c-1.7-0.5-2.9-2.1-3-3.8c-0.1-1.1,0.1-2.3,0.6-3.3
		c0.7-1.5,2.1-2.5,3.7-2.6c0.8-0.1,1.5-0.1,2.3-0.1l2.4-0.1h0.3c0.1-0.5,0-1-0.1-1.4c-0.2-0.5-0.6-0.8-1.1-0.9c-0.5-0.1-1-0.1-1.6,0
		c-1,0.1-1.9,0.6-2.6,1.4c-0.2,0.3-0.2,0.3-0.6,0.1L21,26.6l0,0c0.6-1.7,1.2-3.3,2-4.9l0.5,0.1l1.1,0.3c0.2,0.1,0.3,0.1,0.2,0.3
		s-0.1,0.3-0.2,0.5l0.4-0.1c1.9-0.7,3.9-0.8,5.8-0.3c0.2,0.1,0.4,0.1,0.6,0.2c1.4,0.5,2.5,1.8,2.7,3.4c0.1,0.5,0.1,1,0.1,1.6
		c0,2.6,0,5.1,0,7.7c0,0.2,0,0.3,0,0.5h0.7c0.2,0,0.3,0,0.3,0.2c0,0.5,0,1,0,1.5c0,0,0,0.1,0,0.1h-6.2L28.4,36.4z M28.3,29.9
		c-0.4,0-0.8,0-1.2,0c-1.1,0.1-2.1,0.9-2.3,2c-0.1,0.6-0.1,1.2,0.1,1.8c0.2,0.9,1.1,1.5,2,1.4c0.6,0,1.2-0.4,1.3-1
		c0.1-0.3,0.1-0.7,0.1-1c0-0.9,0-1.8,0-2.6L28.3,29.9z"/>
	<path d="M86,38.3c-1.6,0-3.2-0.3-4.7-1c-2.4-1.1-4-3.4-4.2-6c-0.2-1.5,0-3,0.6-4.4c0.9-1.8,2.4-3.2,4.3-3.9
		c1.6-0.6,3.4-0.8,5.1-0.6c1.4,0.1,2.8,0.6,4,1.3c2.3,1.3,3.7,3.8,3.7,6.4c0.1,1.4-0.3,2.8-0.9,4c-1,1.8-2.6,3.1-4.5,3.7
		C88.3,38.1,87.1,38.3,86,38.3z M82.8,27.7c0,1.7,0.3,3.5,0.9,5.1c0.3,0.8,0.6,1.5,1.2,2.1c0.3,0.4,0.7,0.7,1.2,0.8
		c1.1,0.4,2.4-0.2,2.8-1.3c0-0.1,0.1-0.2,0.1-0.3c0.1-0.5,0.1-1,0.2-1.6c0-0.8-0.1-1.6-0.2-2.3c-0.2-1.1-0.5-2.2-0.9-3.2
		c-0.3-0.6-0.6-1.1-1.1-1.6c-0.4-0.5-1-0.8-1.7-0.8c-0.9-0.2-1.7,0.3-2,1.2c-0.1,0.2-0.1,0.4-0.2,0.6C82.9,26.9,82.8,27.4,82.8,27.7
		z"/>
	<path d="M44.1,34.9l0.7,1.8l-0.2,0.1c-0.4,0.3-0.8,0.6-1.2,0.8c-0.6,0.4-1.2,0.6-1.9,0.6c-0.8,0-1.5,0-2.3,0
		c-0.2,0-0.5-0.1-0.7-0.1c-1.3-0.2-2.3-1.3-2.4-2.6c-0.1-0.5-0.1-1-0.1-1.5c0-2.8,0-5.6,0-8.3c0-0.1,0-0.3,0-0.5h-1.5
		c0-0.1,0-0.2,0-0.3v-1.1c0-0.3,0-0.4,0.3-0.5c1.1-0.3,2.1-0.8,3-1.5c0.9-0.7,1.6-1.6,2.2-2.7c0.2-0.3,0.2-0.3,0.5-0.3
		c0.5,0.1,1,0.2,1.5,0.3c-0.2,1.2-0.2,2.4-0.2,3.6h2.8c0,0.2-0.1,0.4-0.1,0.6c-0.1,0.5-0.2,1-0.3,1.5c-0.1,0.3-0.1,0.3-0.4,0.3h-2
		c0,0.1,0,0.2,0,0.4c0,2.8,0,5.6,0,8.3c-0.1,0.6,0.4,1.2,1.1,1.3c0,0,0.1,0,0.1,0C43.4,35.2,43.8,35.1,44.1,34.9z"/>
	<path d="M120.6,35.9h0.7c0.2,0,0.3,0,0.3,0.3c0,0.5,0,1,0,1.5c-0.3,0.1-6.6,0.1-8,0c0,0,0-0.1,0-0.2c0-0.5,0-0.9,0-1.4
		c0-0.2,0.1-0.3,0.3-0.3h0.9V25.7l-1.1,0.2v-1.8l6.8-1.8L120.6,35.9L120.6,35.9z"/>
	<path d="M118.2,17.7c0.5,0,1,0.1,1.5,0.3c0.9,0.3,1.4,1.4,1.1,2.3c-0.1,0.2-0.1,0.3-0.2,0.5c-0.2,0.3-0.5,0.5-0.8,0.7
		c-1,0.7-2.3,0.9-3.5,0.8c-1-0.1-1.7-1-1.6-2c0-0.3,0.1-0.6,0.3-0.9c0.2-0.3,0.5-0.6,0.8-0.9C116.5,18,117.3,17.7,118.2,17.7z"/>
	<path d="M138.3,18.6c0,1.2-0.9,2.1-2,2.1c0,0,0,0,0,0c-1.1-0.1-2-1-2-2.1c0-1.1,0.9-2,2-2.1C137.3,16.5,138.3,17.4,138.3,18.6
		C138.3,18.6,138.3,18.6,138.3,18.6z M138,18.6c0-1-0.8-1.8-1.7-1.8c0,0,0,0,0,0c-1-0.1-1.9,0.7-2,1.7s0.7,1.9,1.7,2
		c0.1,0,0.2,0,0.3,0C137.2,20.4,138,19.6,138,18.6C138,18.6,138,18.6,138,18.6L138,18.6z"/>
	<path d="M136.5,18.7l0.7,1c-0.1,0.1-0.3,0-0.4-0.1c0,0,0,0,0,0c-0.2-0.3-0.4-0.6-0.5-0.9h-0.5v1.1c-0.2,0-0.3,0-0.3-0.1
		c0-0.7,0-1.4,0-2.2c0.4,0,0.9,0,1.3,0c0.3,0.1,0.5,0.3,0.5,0.6c0,0.3-0.2,0.5-0.4,0.5C136.7,18.6,136.6,18.6,136.5,18.7z
		 M135.8,18.5c0.3,0,0.5,0,0.8,0s0.4-0.1,0.4-0.4c0-0.2-0.1-0.4-0.4-0.5c0,0,0,0,0,0c-0.2,0-0.5,0-0.8,0V18.5z"/>
</g>
</svg>
