<?xml version="1.0" encoding="utf-8"?>
<!-- Generator: Adobe Illustrator 24.2.0, SVG Export Plug-In . SVG Version: 6.00 Build 0)  -->
<svg version="1.1" id="Calque_1" xmlns="http://www.w3.org/2000/svg" xmlns:xlink="http://www.w3.org/1999/xlink" x="0px" y="0px"
	 viewBox="0 0 140 60" style="enable-background:new 0 0 140 60;" xml:space="preserve">
<g>
	<path d="M39.1,54.7h-2.3l-0.4,1.2h-1l2-5.5h1l2,5.5h-1L39.1,54.7z M38.8,53.9l-0.9-2.6L37,53.9H38.8z"/>
	<path d="M48.4,50.4v5.5h-0.9v-3.8l-1.7,3.8h-0.6l-1.7-3.8v3.8h-0.9v-5.5h1l1.9,4.3l1.9-4.3H48.4z"/>
	<path d="M50.7,54.8l0.8-0.5c0.2,0.5,0.7,0.8,1.2,0.8s0.9-0.3,0.9-0.7c0-1.2-2.6-0.7-2.6-2.6c0-0.9,0.7-1.5,1.5-1.5h0.1
		c0.6,0,1.2,0.3,1.6,0.7l-0.6,0.6c-0.2-0.3-0.6-0.5-1-0.5s-0.7,0.2-0.7,0.6c0,1.1,2.6,0.7,2.6,2.6c0,0.9-0.8,1.6-1.7,1.6h-0.1
		C51.8,56,51.1,55.5,50.7,54.8z"/>
	<path d="M60,51.2h-1.5v4.7h-0.9v-4.7h-1.5v-0.8H60V51.2z"/>
	<path d="M63.1,51.2v1.5h2v0.8h-2V55h2.3v0.8h-3.2v-5.5h3.2v0.9H63.1z"/>
	<path d="M72.1,55.9h-1l-1.5-2.3h-0.8v2.3h-0.9v-5.5h2.2c0.9,0,1.6,0.7,1.6,1.6l0,0c0,0.7-0.5,1.3-1.2,1.5L72.1,55.9z M70,52.8
		c0.4,0.1,0.9-0.2,0.9-0.7c0.1-0.4-0.2-0.9-0.7-0.9l0,0h-1.5v1.6C68.7,52.8,70,52.8,70,52.8z"/>
	<path d="M74.1,50.4h1.7c1.5-0.1,2.8,1.1,2.9,2.6s-1.1,2.8-2.6,2.9c-0.1,0-0.2,0-0.3,0h-1.7V50.4z M75.8,55c1.1,0,1.9-0.9,1.9-1.9
		c0-1.1-0.9-1.9-1.9-1.9H75v3.9L75.8,55L75.8,55z"/>
	<path d="M83.9,54.7h-2.3l-0.4,1.2h-0.9l2-5.5h1l2,5.5h-1L83.9,54.7z M83.6,53.9l-0.9-2.6l-0.9,2.6H83.6z"/>
	<path d="M93.1,50.4v5.5h-0.9v-3.8l-1.7,3.8h-0.6l-1.7-3.8v3.8h-0.9v-5.5h1l1.9,4.3l1.9-4.3H93.1z"/>
	<path d="M21.1,34.7c0,4.9-3.6,7.5-8.2,7.5H0.2V14.7h11.7c4.6,0,8.3,2.8,8.3,7.7c0.1,2.5-1.2,4.8-3.4,5.9
		C19.5,29.2,21.3,31.8,21.1,34.7z M11.2,20H6.3v5.9h4.9c1.6,0,3-1.3,3-3C14.1,21.4,12.8,20,11.2,20L11.2,20L11.2,20z M15.1,33.9
		c0-1.6-1.3-3-3-3l0,0H6.3v5.9h5.8c1.6,0,2.9-1.2,3-2.8C15.1,34,15.1,33.9,15.1,33.9z"/>
	<path d="M44.4,37H34.1l-1.7,5.2h-6.5l10-27.6h6.8l9.9,27.6h-6.5L44.4,37z M42.8,32l-3.5-10.9L35.8,32H42.8z"/>
	<path d="M81.3,42.3h-6.8l-6.8-10.6h-2.4v10.6h-6.1V14.7h11.7c4.5,0,8.2,3.7,8.2,8.2c0,0.1,0,0.2,0,0.2c0.1,3.5-2.2,6.7-5.5,7.8
		L81.3,42.3z M73.4,23.3c0-1.8-1.4-3.2-3.2-3.3c-0.1,0-0.1,0-0.2,0h-4.7v6.5H70c1.8,0.1,3.2-1.3,3.3-3
		C73.3,23.5,73.3,23.4,73.4,23.3L73.4,23.3z"/>
	<path d="M105.6,20h-6.9v22.2h-6V20h-7v-5.3h19.9V20z"/>
	<path d="M110.5,36.4l5-3.1c1,2.2,3.1,3.6,5.5,3.6c2.1,0,3.4-1,3.4-2.5c0-4.8-12.7-2.6-12.7-11.9c0-5.5,4.4-8.1,8.8-8.1
		c3.3,0,6.4,1.4,8.5,3.9l-4,3.9c-1.1-1.4-2.7-2.3-4.5-2.4c-1.5,0-2.6,0.7-2.6,2.3c0,4.8,12.7,2.2,12.7,12.4c0,5.1-4.4,8.2-9.5,8.2
		C116.6,42.8,112.5,40.3,110.5,36.4z"/>
	<path d="M139.8,17.2c0,1.6-1.3,2.9-2.9,2.9s-2.9-1.3-2.9-2.9s1.3-2.9,2.9-2.9l0,0l0,0C138.5,14.3,139.8,15.6,139.8,17.2z
		 M139.3,17.2c0-1.3-1.1-2.4-2.5-2.4c-1.3,0-2.4,1.1-2.4,2.5s1.1,2.4,2.5,2.4l0,0C138.2,19.7,139.3,18.6,139.3,17.2
		C139.3,17.3,139.3,17.2,139.3,17.2L139.3,17.2L139.3,17.2z M137.4,17.4l0.7,1.3h-0.5l-0.7-1.2h-0.4v1.2h-0.4v-2.9h1
		c0.5,0,0.9,0.4,0.9,0.8l0,0l0,0C137.9,16.9,137.7,17.3,137.4,17.4L137.4,17.4z M136.5,17h0.5c0.2,0,0.4-0.2,0.4-0.4l0,0
		c0-0.2-0.2-0.4-0.4-0.4l0,0h-0.6L136.5,17z"/>
</g>
</svg>
