<?xml version="1.0" encoding="utf-8"?>
<!-- Generator: Adobe Illustrator 24.0.1, SVG Export Plug-In . SVG Version: 6.00 Build 0)  -->
<svg version="1.1" id="Calque_1" xmlns="http://www.w3.org/2000/svg" xmlns:xlink="http://www.w3.org/1999/xlink" x="0px" y="0px"
	 width="140px" height="60px" viewBox="0 0 140 60" style="enable-background:new 0 0 140 60;" xml:space="preserve">
<g id="_x36_mG8OI.tif">
	<g>
		<path d="M138.6,12.7c-0.1,0-0.1,0.1-0.2,0.1c-4.9,6-9.8,12-14.7,18c-0.1,0.1-0.1,0.2-0.1,0.4c0.2,0.5,0.4,0.9,0.7,1.4
			c3.4-3,6.7-6,10-9c0.1,0.1,0.2,0.1,0,0.4c-2.5,7.9-4.9,15.8-7.4,23.6c-9.8,0.8-20.9,0-31.5,0.3c0.1-0.1,0.1-0.2,0.2-0.3
			c4.5-5.4,9.3-11.1,14.2-16.9c0.2-0.2,0.2-0.3,0.1-0.6c-0.4-0.7-0.8-1.5-1.3-2.2c0-0.1-0.1-0.1-0.1-0.2c-3,3-5.9,6-8.9,8.9
			c0,0,0,0-0.1,0c0-0.1,0-0.2,0-0.3c1.8-7.7,3.6-15.4,5.4-23.2c7.7-1.4,18.7-0.1,27.3-0.6C133.5,12.7,136.6,12.2,138.6,12.7z
			 M131.4,28.7C131.4,28.7,131.3,28.7,131.4,28.7c-0.2,0-0.2,0.1-0.3,0.2c-3.6,3.2-7.3,6.5-10.9,9.7c-1.4,0.5-2.4,0-5,0.1
			c0.1-0.1,0.1-0.1,0.1-0.2c1.3-1.7,2.6-3.3,4-5c0.4-0.6,2.5,0.3,3.3-0.5c-0.3-0.7-0.6-1.5-0.9-2.2c-0.1-0.2-0.1-0.3,0.1-0.5
			c4-4.9,8.6-10.4,13-15.9c0.1-0.1,0.1-0.2,0.2-0.3c-9,0.3-19.2-0.6-28.6,0.3c-0.2,1.1-0.5,2.1-0.7,3.2c-1,4.3-2,8.7-3,13
			c0,0.1,0,0.2,0,0.3c0,0,0,0,0.1,0c2.4-2.5,5.9-6.1,8.9-9.2c2-0.7,5-0.1,8-0.3c-0.1,0.1-0.1,0.1-0.1,0.2c-1.4,1.8-2.9,3.5-4.3,5.3
			c-1.1,0.5-2.3,0.1-4.5,0.3c-0.4,0-0.4,0-0.2,0.4c0.5,0.9,1,1.8,1.4,2.7c0.1,0.2,0.1,0.3,0,0.5c-3.7,4.5-8.6,10.4-12.7,15.2
			c-0.1,0.1-0.1,0.2-0.2,0.3c8.2-0.3,18.2,0.6,26.8-0.3c1.8-5.7,3.6-11.4,5.4-17C131.4,28.9,131.4,28.8,131.4,28.7z M110.9,25.3
			C110.9,25.4,110.9,25.4,110.9,25.3c0.6-0.1,2.3,0.4,3.6-0.1c0.3-0.4,0.8-0.7,1.7-2c-0.6,0.1-2.1-0.2-3.5,0.1
			C112.1,24,111.5,24.7,110.9,25.3z M121.6,35.3L121.6,35.3c-0.2,0.1-0.5-0.3-1.7,0.1c-0.3,0.4-0.8,0.7-1.6,1.8
			c0.3-0.1,0.2,0.1,1.1-0.1C120.2,36.5,120.9,35.9,121.6,35.3z"/>
		<path d="M15.1,18.6c0.2-0.4-0.3-1.2,0.4-1.9c3.3-0.5,7,0.8,10,3.7c0.1,0,0.1,0.1,0.2,0.2c0.1,0-0.1-0.5,0.4-0.6
			c0.9,0.2,1.7,0.3,2.6,0.5c1.3,0.2,2.6,0.5,3.8,0.7c0.2,0,0.3,0.1,0.4,0.4c0.2,0.8,0.5,1.6,0.7,2.5c0.1-0.1,0.2-0.1,0.2-0.1
			c3.9-3,11.3-3.4,14.4,1.8c0.1,0.2,0.1,0.4,0.1,0.7c-0.1,0.8-0.1,1.7-0.2,2.5c0,0.1,0,0.1,0,0.2c0.3,0,0.5,0.1,0.8,0.1
			c0.1-0.5,0.1-0.9,0.2-1.4c0.2-1.5,0.4-3,0.6-4.5c0-0.2,0.1-0.2,0.3-0.2c1.5,0.1,3.1,0.1,4.6,0.2c0.2,0,0.3,0.1,0.4,0.3
			c0.4,0.9,0.9,1.7,1.4,2.6c0,0.1,0.1,0.2,0.2,0.3c0-0.5,0-0.9,0.1-1.3c-0.3-1.9,1.5-2.1,4-1.7c1.3,0.1,2.6-0.1,3.8-0.3
			c2.2-0.2,5.8-1,8.7,0.8c0,0,0.1,0,0.1,0.1c0.1-0.5,0.2-0.9,0.3-1.4c0-0.2,0.1-0.3,0.3-0.3c1.7-0.2,3.4-0.4,5.1-0.6
			c0.5-0.1,1.1-0.1,1.6-0.2c0.2,0,0.2,0,0.3,0.2c0.1,0.5,0.3,1.1,0.4,1.6c0.2-0.1-0.3-1.3,0.5-2c2.1-0.4,4.2-0.8,6.3-1.2
			c0.1,0,0.1,0,0.3,0c-0.3,4.2-0.6,8.5-0.9,12.7c0.2,0.1,0.3,0,0.3-0.2c0.6-3.8,1.2-7.6,1.8-11.3c0.3-0.2-0.3-0.6,0.5-1.8
			c2.4-0.6,4.7-1.2,7.1-1.7c0,0,0.1,0,0.2,0c-1,5.7-2,11.4-3.1,17.1c1.5-0.4,2.9-0.7,4.4-1.1c0,0.1,0,0.2,0,0.3
			c-0.7,3.6-1.5,7.2-2.2,10.8c-2.2,0.8-7.5,0.9-10.6,0.4c0.1-0.6,0.1-1.1,0.2-1.7c0-0.3,0-0.5,0-0.8c-0.4,0.1-0.9,0.2-1.3,0.3
			c0.1,0.4,0.1,0.8,0.2,1.1c0.1,0.2,0,0.3-0.3,0.4c-2.3,0.3-4.6,0.7-6.9,1c-0.4,0.1-0.4,0-0.4-0.3c-0.1-1-0.3-1.9-0.4-2.9
			c0,0,0,0-0.1-0.1c0.1,0.1,0.1,0.5,0,0.9c-0.1,0.8-0.2,1.6-0.3,2.4c0,0.2-0.1,0.3-0.3,0.3c-1.9-0.2-3.9-0.3-5.8-0.5
			c-1.6,0-4.2,0.6-6.7-0.1c-0.3-0.1-0.3-0.2-0.4-0.5c-0.1-1.6-0.2-3.1-0.3-4.7v-0.1H63c0,1.2,0.1,3.2-0.1,5.4
			c-0.9,0.8-3.9,0.5-6.2,0.2c-0.2-0.4-0.5-0.8-0.8-1.3c0.1,2.6-6.2,1.7-8.7,1.3c0.1-0.4,0.1-0.9,0.1-2.1c-0.6-0.1-1.1-0.3-1.7-0.4
			c-0.1,0-0.2,0.1-0.3,0.1c-2.2,2.3-6.6,3.9-10.1,1.5c-0.2-0.1-0.2-0.5-1.4-0.7c-0.9,0.2-1.8,0.3-2.7,0.5c-0.3,0.1-0.4-0.1-0.4-0.3
			c-0.2-1.3-0.5-2.6-0.7-3.9c0,0,0-0.1-0.1-0.1c-0.1,0.1,0.3,1-0.8,1.2c-0.2,0.2,0.8,0.6,0.4,1.6c-2.4,0.9-4.7,1.7-7.1,2.6
			c-0.2,0.1-0.3,0-0.4-0.2c-0.2-0.5-0.5-1-0.7-1.5c-0.1,0.3-0.1,0.5-0.2,0.7c0,0.2-0.1,0.2-0.3,0.2c-2.3-0.2-4.7-0.1-7-0.5
			c-0.2,0-0.5-0.1-0.8-0.1c0.2-0.4,0.4-0.7,0.6-1.2c-0.2,0.1-0.2,0.1-0.3,0.2c-1.2,0.6-2.3,1.2-3.5,1.7C9.9,45,8.5,45.9,8.2,45
			c-0.7-4.4-1.8-11-2.7-16.6c-2.7-2-1.9-9.8-3.2-14.4c0-0.3,0.1-0.3,0.3-0.3c3.9-0.4,8.5,1.7,11.8,4.7
			C14.8,18.4,14.9,18.5,15.1,18.6z M18.5,31.5c0.4-8-5.3-15.8-14-16.2c-0.1,0-0.2,0-0.2,0.5c0.4,2.8,1,6.9,1.5,10.6
			c0,0.2,0.1,0.3,0.3,0.3c0.3,0.1,0.6,0.1,0.9,0.2c0.2,0,0.3,0.1,0.3,0.3C8,31.9,8.8,37.4,9.7,43c0,0.3,0.1,0.3,0.4,0.2
			C14.8,42.3,18.7,36.3,18.5,31.5z M71,35.7c0.4-0.3,0.4,0.1,2.1-1.2c2.3-2.1,2.4-6.7-0.7-9.1c-2.3-1.6-5.5-1-8.9-0.7
			c-0.7,1-1.3,5.9,0.1,7.4c0.3,3.6,0.7,7.5,1.1,11.9c1,0.7,3.8,0.5,6.3-0.1c3.3-1.3,3.5-4.6,1.9-6.6C72.5,36.5,71.8,36,71,35.7z
			 M22.9,34.2c0.1-0.1,0.2-0.2,0.3-0.2c6.4-3.9,3.7-13.2-3.1-15.3c-1-0.4-2.1-0.5-3.2-0.6c-0.2,0.2-0.6,0.2-0.2,2.3
			c4.3,5.8,4.4,15.4-1.3,21.5c0.1,0.3-0.8,1.6,1.3,1.5c1,0.1,2,0.2,2.9,0.3c0.2,0,0.3-0.1,0.3-0.3c0.1-1.4,0.3-2.9,0.4-4.3
			c0-0.2,0.1-0.4,0.1-0.6c0.1,0.1,0.1,0.2,0.2,0.3c0.7,1.6,1.4,3.2,2,4.8c1.1,0.4,2.8-0.8,4.8-1.3c0.4-0.1,0.4-0.1,0.2-0.5
			c-1.5-2.4-3-4.8-4.6-7.2C23,34.4,23,34.3,22.9,34.2z M57.6,31.7c-0.1-0.1-0.1-0.2-0.2-0.3c-1.8-2-1.5-7.9-6.2-7
			c-0.3,0-0.4,0.1-0.4,0.4c-0.1,1.5-0.3,2.9-0.4,4.4c1.5,1.5,4.3,3,4.6,6.3c0.3,2.3-0.4,4.2-2,5.8c-0.5,1.4-4.6,0.8-4,3.3
			c1.1-0.3,4,0.5,5.7-0.3c0.1-1.2,0.3-2.3,0.4-3.5c0-0.4,0.1-0.7,0.1-1.2c0.1,0.2,0.1,0.2,0.2,0.3c1.4,2.8,2,5.4,6.5,4.4
			c0.2-2.2,0-5.2,0.1-8.3c0-3.7,0-7.3,0.1-11c-0.4-0.4-2.6-0.7-3.8-0.1c-0.1,1.8-0.2,3.7-0.3,5.5C57.7,30.9,57.7,31.3,57.6,31.7z
			 M31,36.6c0,0.3,0.1,0.5,0.1,0.8c0.2,1.8,0.5,3.6,0.7,5.3c0,0.2,0.1,0.4,0.4,0.3c0.1,0,0.1,0,0.2,0c1.3-0.2,2.6-0.4,3.9-0.6
			c-0.6-4.9-2.5-14.8-5.1-19.9c-1.3-0.2-2.6-0.5-3.9-0.8c-0.1,0-0.3,0-0.3,0c-0.1,0.3-0.3,0.6-0.1,0.9c0.3,0.7,0.7,1.4,0.9,2.2
			c0.9,2.5,0.4,6.3-2.2,8.9c-0.1,0.1-0.6,0.7-0.4,1.9c0.8,1.4,1.7,2.7,2.6,4c0,0.1,0.1,0.1,0.1,0.2c0.1-0.1,0.4,0.4,0.7-0.2
			c0-0.2,0.1-0.5,0.1-0.7c0.1-0.8,0.2-1.6,0.3-2.4C29.7,36.6,30.3,36.6,31,36.6z M73.5,44.3c0.2,0,0.3,0,0.4,0.1
			c0.5,0,0.9,0,1.4,0.1c0.3,0,0.4-0.1,0.4-0.3c0.2-2,0.5-4,0.7-5.9c0.2-0.2,0.5-0.5,1.8,0c0.2,1.9,0.4,3.7,0.7,5.6
			c0,0.3,0.1,0.4,0.4,0.3c1.3-0.2,2.7-0.4,4-0.7c0.3-0.1,0.4-0.1,0.3-0.4c-1-5.7-2.4-13-3.7-19.4c-0.1-0.4-0.1-0.4-0.5-0.4
			c-1.2,0.4-6.4-0.5-4.3,2.9c2.2,3.1,0.9,7.4-1.1,10.2c0.3,0.4,0.6,0.9,0.8,1.3c0.9,1.6,0.9,3.2,0.1,4.8c-0.5,0.5-0.9,1-1.2,1.5
			C73.6,44.1,73.6,44.2,73.5,44.3z M97.3,35.7c-1.5,0.3-2.9,0.6-4.3,1c0.8-4.4,1.9-11.4,2.8-16.6c0.1-0.3,0-0.3-0.3-0.3
			c-1.3,0.3-2.7,0.6-4,0.9c-0.2,0.1-0.3,0.2-0.3,0.4c-0.6,3.7-1.1,7.5-1.7,11.2c0,0.1,0,0.3,0,0.4c1-0.2,2-0.3,3-0.5
			c0,0.1,0,0.2,0,0.2c-0.5,2.9-0.8,5.4-1.5,9.4c0,0.2-0.1,0.3-0.3,0.3c-0.8,0.1-1.6,0.2-2.4,0.3c-0.2,0.1-0.3,0-0.6,1.3
			c-0.1,0.2,0,0.3,0.2,0.3c1.7-0.3,5.4,0.4,7.9-0.4c0.4-2.2,0.9-4.3,1.3-6.4C97.1,36.6,97.2,36.2,97.3,35.7z M86.1,34.4
			c0-0.4,0.1-0.8,0.1-1.2c0.1-1.9,0.2-3.7,0.4-5.6c0.1-1.8,0.2-3.6,0.4-5.4c0-0.3,0-0.4-0.3-0.3c-1.2,0.2-2.4,0.5-3.6,0.8
			c-0.2,0-0.3,0.2-0.3,0.4c-0.1,1.9-0.3,3.7-0.4,5.6c0,0.4-0.1,0.8,0,1.2c0.8,3.8,1.6,7.6,2.3,11.4c0,0.2,0.1,0.3,0.3,0.3
			c1.6-0.2,3.1-0.3,4.7-0.5c0.3,0,0.3-0.2,0.3-0.4c0.3-2.2,0.7-4.4,1-6.6c-0.3-0.4-0.1-0.3-1.2-0.2C88.5,34.1,87.3,34.2,86.1,34.4z
			 M48,30.6c-7.6,0.3-7.3,11.2,0,11.5C55.6,41.8,55.3,30.9,48,30.6z M36.2,34.5L36.2,34.5c0.1-0.4,0.1-0.8,0.1-1.1
			c0.3-2.9,4-5,7-2.7c0.3,0.3,0.4,0.3,0.7,0c0.7-0.5,1.5-0.9,2.4-1.1c0.2,0,0.3-0.2,0.4-0.4c0.1-0.8,0.1-1.7,0.2-2.5
			c0-0.2-0.1-0.4-0.2-0.5c-0.5-0.6-1.1-1.1-1.7-1.4c-2.8-1.6-7.8-1.9-10.7,1.3c-0.1,0.2-0.2,0.4-0.1,0.6
			C34.9,29.3,35.6,31.8,36.2,34.5C36.1,34.3,36.1,34.4,36.2,34.5z M36.9,43.8c0.1,0.1,0.1,0.1,0.2,0.2c1,0.5,2.1,0.8,3.3,0.6
			c0.7-0.2,3.2-1,3.5-2.4c-1.3-1-2.1-2.3-2.6-3.9c-0.9-1-3.3,0.3-4.4-2.2c-0.1-0.1-0.1-0.1-0.2-0.2c0,0,0,0-0.1,0
			c-0.1,1.5,1.9,5.3,1.3,7.7C37.5,43.6,37.2,43.7,36.9,43.8z M40.2,32.7L40.2,32.7c-2.3-1.1-2.5,5.3,0.8,3.2c0-0.4,0.1-0.7,0.2-1.1
			c0.2-0.6,0.4-1.2,0.6-1.7C41.7,32.5,41.8,32.8,40.2,32.7z"/>
		<path d="M10.4,27.4c2.5,0,5.4,2.6,3.1,5.6c-0.6,0.6-1.3,1-2.1,1.2C11.1,31.9,10.7,29.7,10.4,27.4z M12.2,31.8
			c0.5-0.4,1-1.5-0.3-2.3C12,30.3,12.1,31,12.2,31.8z"/>
		<path d="M67.6,30c1.2-0.2,3,2.5,0.3,2.9c-0.1,0-0.2-0.1-0.2-0.2C67.6,31.8,67.6,30.9,67.6,30z"/>
		<path d="M67.9,37.7c0.9,0,1.5,0.7,1.3,1.4c-0.1,0.6-0.6,0.9-1.2,0.8C67.8,39.5,68,39.2,67.9,37.7z"/>
		<path d="M21.2,30.6c0.1-1.4,0.2-2.7,0.3-4c0.7,0.1,1.7,0.9,1.5,2.3C23,29.8,22.1,30.7,21.2,30.6z"/>
		<path d="M30.4,32.3c-0.4,0-0.7-0.1-1.1-0.1c0.2-1.4,0.3-2.8,0.5-4.2l0,0C30,29.4,30.2,30.9,30.4,32.3z"/>
		<path d="M77.3,30.8c0.1,1,0.3,2,0.4,3.1c-0.3,0-0.5,0-0.8,0C77,32.8,77.2,31.8,77.3,30.8L77.3,30.8z"/>
		<path d="M44.8,35.4c0.6-0.2,1.4,0.5,2.5-0.3c0.2-0.6,0.4-1.1,0.6-1.7c0-0.1,0.1-0.2,0.1-0.3c0.4,1.1,0.3,2.8,3.1,2.3
			c0,0,0,0,0,0.1c-0.1,0.1-0.1,0.1-0.2,0.2c-0.2,0.3-1,0.4-1.5,1.4c0.2,0.6,0.4,1.2,0.6,1.8c0,0.1,0,0.1,0.1,0.2
			c-0.7-0.5-1.3-0.9-2-1.3c-0.6,0.4-1.2,0.9-1.8,1.3c0,0,0,0-0.1,0c0.1-0.4,0.1-0.2,0.6-1.9c0.1-0.2,0-0.3-0.1-0.4
			c-0.5-0.4-1-0.7-1.5-1.1C45,35.6,44.9,35.5,44.8,35.4z"/>
	</g>
</g>
</svg>
