<?xml version="1.0" encoding="utf-8"?>
<!-- Generator: Adobe Illustrator 24.2.0, SVG Export Plug-In . SVG Version: 6.00 Build 0)  -->
<svg version="1.1" id="kangol_1_" xmlns="http://www.w3.org/2000/svg" xmlns:xlink="http://www.w3.org/1999/xlink" x="0px" y="0px"
	 viewBox="0 0 140 60" style="enable-background:new 0 0 140 60;" xml:space="preserve">
<g>
	<g>
		<path d="M134.1,29.7c0,1.2-1,2.1-2.1,2.1c-1.2,0-2.1-1-2.1-2.1c0-1.3,1-2.1,2.1-2.1C133.3,27.6,134.1,28.6,134.1,29.7 M130.2,29.7
			c0,1,0.8,1.8,1.8,1.8s1.8-0.8,1.8-1.8c0-1.1-0.9-1.8-1.8-1.8C130.9,27.9,130.2,28.8,130.2,29.7"/>
		<path d="M131.5,29.5v-0.8h0.7c0.3,0,0.4,0.2,0.4,0.4c0,0.3-0.2,0.4-0.5,0.4H131.5z M131.2,30.8h0.3v-1h0.7c0.3,0,0.3,0.2,0.4,0.4
			c0,0.2,0,0.5,0.1,0.5h0.3c-0.1-0.2-0.1-0.4-0.1-0.6s-0.1-0.4-0.3-0.5c0.3-0.1,0.4-0.3,0.4-0.6c0-0.3-0.3-0.6-0.7-0.6h-1
			L131.2,30.8L131.2,30.8z M27.6,21.2c-0.3-0.1-0.5-0.3-0.4-0.7c0-0.3,0.3-0.6,0.7-0.6h8.9c0.3,0,0.7,0.3,0.7,0.7v27.6
			c0,0.3-0.3,0.7-0.7,0.7h-7.6c-0.3,0-0.7-0.3-0.7-0.7V22.6C28.6,22.1,28.3,21.5,27.6,21.2 M39.2,21.5c-0.2-0.1-0.4-0.3-0.4-0.6
			c0-0.4,0.3-0.7,0.7-0.7h8.8c0.3,0,0.7,0.3,0.7,0.7v27.4c0,0.3-0.3,0.7-0.7,0.7h-7.5c-0.3,0-0.7-0.3-0.7-0.7V22.8
			C40.2,22.3,39.9,21.7,39.2,21.5 M123.8,33.4c0-1.3-1-2.4-2.4-2.4s-2.4,1-2.4,2.4V39h4.7v-5.6H123.8z M132,40
			c0,0.4-0.3,0.7-0.7,0.7h-11.6c-0.4,0-0.7,0.3-0.7,0.7v2.4c0,0,0,4,4.3,3.6c1.7-0.2,4.1-0.8,6.1-3.2c0.3-0.4,1-0.5,1.3-0.2
			c0.5,0.4,0.3,1,0.1,1.3c-0.8,1.2-3.2,3.7-9.5,3.7c-6.8,0-11-3.5-11-9.6c0-5.9,3.9-9.6,11-9.6C128.7,29.7,132.2,34.1,132,40
			 M19.2,33.4c0-1.3-1-2.4-2.4-2.4s-2.4,1-2.4,2.4V39h4.7L19.2,33.4L19.2,33.4z M27.5,40c0,0.4-0.3,0.7-0.7,0.7H15.2
			c-0.3,0-0.7,0.3-0.7,0.7v2.4c0,0,0,4,4.3,3.6c1.7-0.2,4.1-0.8,6.1-3.2c0.3-0.4,1-0.5,1.3-0.2c0.5,0.4,0.3,1,0.1,1.3
			c-0.8,1.2-3.2,3.7-9.5,3.7c-6.8,0-11-3.5-11-9.6c0-5.9,3.9-9.6,11-9.6C24.1,29.7,27.7,34.1,27.5,40 M63.6,33.4
			c0-1.3-1-2.4-2.4-2.4s-2.4,1-2.4,2.4V39h4.7L63.6,33.4z M71.9,40c0,0.4-0.3,0.7-0.7,0.7H59.6c-0.3,0-0.7,0.3-0.7,0.7v2.4
			c0,0,0,4,4.3,3.6c1.7-0.2,4.1-0.8,6.1-3.2c0.3-0.4,1-0.5,1.3-0.2c0.5,0.4,0.3,1,0.1,1.3C70,46.4,67.6,49,61.3,49
			c-6.8,0-11-3.5-11-9.6c0-5.9,3.9-9.6,11-9.6C68.6,29.7,72.1,34.1,71.9,40 M82,29.7c0,0-7.2-0.5-8.8,5.1c-1.5,5.2,2.3,6.7,4.5,7.7
			c2,0.8,7,1.8,7,3.4c0,0.8-0.7,1.3-1.6,1.4c0,0-5,1-8.3-3.1c-0.3-0.5-0.9-0.6-1.3-0.2c-0.5,0.4-0.3,1-0.2,1.2
			c0.9,1.4,3.3,3.8,8.6,3.8c0,0,7.4,0.6,8.8-5.2c0.9-3.5-0.7-6-4.4-7.4c-4.7-1.7-7.7-1.9-7.7-3.6c0-0.7,0.7-1.2,1.6-1.3
			c0,0,4.2-0.8,7.1,1.3c0.4,0.3,1,0.4,1.3-0.1s0.2-1.1-0.3-1.3C86.9,30.2,84.6,29.7,82,29.7"/>
		<path d="M100.3,29.7c0,0-7.2-0.5-8.8,5.1C90,40,93.9,41.6,96,42.5c2,0.8,7,1.8,7,3.4c0,0.8-0.7,1.3-1.6,1.4c0,0-5,1-8.3-3.1
			c-0.3-0.5-0.9-0.6-1.3-0.2c-0.5,0.4-0.3,1-0.2,1.2c0.9,1.4,3.3,3.8,8.6,3.8c0,0,7.4,0.6,8.8-5.2c0.9-3.5-0.7-6-4.4-7.4
			c-4.7-1.7-7.7-1.9-7.7-3.6c0-0.7,0.7-1.2,1.6-1.3c0,0,4.2-0.8,7.1,1.3c0.4,0.3,1,0.4,1.3-0.1s0.2-1.1-0.3-1.3
			C105.3,30.2,102.9,29.7,100.3,29.7"/>
	</g>
	<path d="M99.5,12.8C97,11.6,94,11,91.1,11s-5.9,0.7-8.4,1.7c-2.3,1-2.4,2.5-1.5,3.3c2.5,2.7,4.2,6.4,4.5,10.5
		c0,0.6,0.5,0.7,0.7,0.7h9.5c0.2,0,0.7-0.2,0.7-0.7c0.3-4.2,1.9-7.9,4.5-10.5C101.8,15.2,101.8,13.8,99.5,12.8"/>
	<path d="M84.8,26.5c0,0.7-0.7,0.7-0.7,0.7H73.9c-0.7,0-1-0.4-1-1.1c0-4.7,3.6-10.1,5.9-10.1C81.3,16.1,84.6,21.9,84.8,26.5
		 M97.5,26.5c0,0.7,0.7,0.7,0.7,0.7h10.1c0.7,0,1-0.4,1-1.1c0-4.7-3.6-10.1-5.9-10.1C100.9,16.1,97.6,21.9,97.5,26.5"/>
</g>
</svg>
