<?xml version="1.0" encoding="utf-8"?>
<!-- Generator: Adobe Illustrator 24.2.0, SVG Export Plug-In . SVG Version: 6.00 Build 0)  -->
<svg version="1.1" id="Calque_1" xmlns="http://www.w3.org/2000/svg" xmlns:xlink="http://www.w3.org/1999/xlink" x="0px" y="0px"
	 viewBox="0 0 140 60" style="enable-background:new 0 0 140 60;" xml:space="preserve">
<g id="repere">
</g>
<g id="new_era">
	<g>
		<path d="M122.1,52.4c-0.8,0-1.5,0.6-1.5,1.5s0.7,1.5,1.5,1.5s1.5-0.6,1.5-1.5S122.9,52.4,122.1,52.4z M122.1,55.2
			c-0.7,0-1.2-0.5-1.2-1.3c0-0.7,0.5-1.3,1.2-1.3s1.2,0.5,1.2,1.3C123.3,54.6,122.8,55.2,122.1,55.2z"/>
		<path d="M122.8,53.5c0-0.3-0.2-0.5-0.6-0.5h-0.7v1.7h0.3V54h0.3l0.5,0.8h0.3l-0.5-0.8C122.6,54,122.8,53.8,122.8,53.5z
			 M121.8,53.8v-0.5h0.4c0.3,0,0.4,0.1,0.4,0.3s-0.1,0.3-0.4,0.3L121.8,53.8L121.8,53.8z"/>
		<polygon points="51.6,31.6 60.3,30 59.4,28.5 50.4,29.2 		"/>
		<path d="M34.4,22.5c0,0,3.1,0.4,3.5,0.4c1.7,0.2,2.3,1.1,2.8,2.4c0.5,1.4,2.2,6,2.2,6l0.6-0.1c2.4-0.3,3.4-0.1,4.1,0.3l-3.4-7.8
			c-1.1-2.5-2.4-3-5.3-3.5c-0.6-0.1-2.2-0.4-3.2-0.6s-1.8,0.4-1.8,1.3c0-0.2-0.5-1.7-0.5-1.7L28,18.1l3,14.8l6.1-0.8L34.4,22.5z"/>
		<path d="M48.8,34.3c-0.6-1.5-2.2-1.7-4.6-1.3c-2.4,0.4-12.7,2.3-12.7,2.3l0.9,4.4l12.9-3.8c2.5-0.7,3.8-0.8,4.1-0.1
			c0.6,1.5,2.5,1.6,4.5,0.7c1.7-0.7,8.1-3.6,8.1-3.6l-1-1.6l-12,3.5C49,34.8,48.9,34.6,48.8,34.3z"/>
		<path d="M58.4,26.9c0,0-0.3-0.5-0.4-0.6c-0.3-0.4-0.8-0.8-1.6-0.9c-0.7-0.1-8.3-0.9-8.3-0.9l1.1,2.2L58.4,26.9z"/>
		<path d="M108.9,26.6c0,0.2-0.1,0.3-0.3,0.3h-2.1V16.3H104V27h-2.1c-0.2,0-0.3-0.2-0.3-0.3V16.3H99v10.3c0,1.4,1.1,2.5,2.5,2.6h7.4
			c1.4,0,2.5-1.2,2.5-2.6V16.3h-2.5V26.6L108.9,26.6z"/>
		<path d="M84.1,24.2l-4.9-7.5c-0.2-0.3-0.5-0.4-0.8-0.4h-0.7c-0.5,0-1,0.4-1,1v12h2.5v-7.9l4.9,7.5c0.2,0.3,0.5,0.4,0.8,0.4h0.7
			c0.5,0,1-0.4,1-1v-12h-2.5C84.1,16.3,84.1,24.2,84.1,24.2z"/>
		<path d="M68.3,4.6H18.4v50.8h50.4l0,0h50.7V4.6H68.8H68.3z M52.7,39.9c-2.4,1.4-4.4,1.3-5.1-0.4c-0.4-1.1-1.7-0.9-3.9,0
			C42,40.1,31.3,44.3,30,44.7c-1.4,0.5-2.7-0.1-2.9-1.5c-0.2-1.4-3.5-25.8-3.5-25.8c-0.2-1.5,0.9-2.5,2.3-2.1l14.4,3.6
			c2.3,0.6,3.9,1.9,4.5,3.2c0,0,9.8,1.8,11,2c1.8,0.3,2.6,1.1,3.2,2.1c0.4,0.7,4.6,7.3,4.6,7.3S54.9,38.7,52.7,39.9z M70,5.9h48.3
			v48.3H70V5.9z"/>
		<path d="M79.3,30.8c-1.4,0-2.5,1.2-2.5,2.6v7.8c0,1.4,1.1,2.5,2.5,2.6h7.4v-2.2h-7c-0.2,0-0.3-0.2-0.3-0.3v-2.8H86v-2.2h-6.8v-2.7
			c0-0.2,0.1-0.3,0.3-0.3h7V31L79.3,30.8L79.3,30.8z"/>
		<path d="M108.9,30.8L108.9,30.8h-5.8l0,0c-1.4,0-2.5,1.2-2.5,2.6v10.3h2.5V33.4c0-0.2,0.2-0.3,0.3-0.3h5.1c0.2,0,0.3,0.2,0.3,0.3
			v2.7h-4.1c-0.2,0-0.4,0.1-0.4,0.3l-0.9,2h5.4v5.4h2.5V33.4C111.4,32,110.3,30.8,108.9,30.8z"/>
		<path d="M90.5,29.2L90.5,29.2h7.1V27h-6.8c-0.2,0-0.3-0.2-0.3-0.3v-2.8H97v-2.2h-6.5V19c0-0.2,0.2-0.3,0.3-0.3h6.8v-2.3h-7.1l0,0
			c-1.4,0-2.5,1.2-2.5,2.6v7.8C88,28,89.1,29.2,90.5,29.2z"/>
		<path d="M99,35.8v-2.4c0-1.4-1.1-2.5-2.5-2.6l0,0h-6l0,0c-1.4,0-2.5,1.2-2.5,2.6v10.3h2.5V33.4c0-0.2,0.1-0.3,0.3-0.3h5.3
			c0.2,0,0.3,0.2,0.3,0.3v2.4c0,0.2-0.2,0.3-0.3,0.3h-4c-0.2,0-0.4,0.1-0.4,0.3l-0.9,2H94l2.6,5.4h2.9l-2.8-5.4
			C98,38.1,99,37,99,35.8z"/>
	</g>
</g>
</svg>
