<?xml version="1.0" encoding="utf-8"?>
<!-- Generator: Adobe Illustrator 25.2.3, SVG Export Plug-In . SVG Version: 6.00 Build 0)  -->
<svg version="1.1" id="Calque_1" xmlns="http://www.w3.org/2000/svg" xmlns:xlink="http://www.w3.org/1999/xlink" x="0px" y="0px"
	 viewBox="0 0 140 60" style="enable-background:new 0 0 140 60;" xml:space="preserve">
<g>
	<g>
		<g>
			<path d="M100.5,12.4c-6.8,0-11.9,5.3-11.9,11.8c0,6.9,5.6,11.8,11.3,11.8c6.6,0,11.9-5.3,11.9-11.8
				C111.7,17.5,106.5,12.4,100.5,12.4z M100,33.7c-3.9,0-7-4-7-9.6c0-5.3,2.9-9.6,7.4-9.6c4,0,7,4.2,7,9.6
				C107.3,29.4,104.4,33.7,100,33.7z"/>
			<path d="M47.6,33l-5-0.1v-9.4h2.6c2.1,0,2.6,0.8,2.8,1.5l0.4-0.1v-5L48.1,20c-0.2,0.6-1,1.3-2.8,1.3h-2.6v-6l4.5,0
				c1.7,0,2.4,0.6,2.6,1.6l0.4-0.1l0.7-3.8l-0.1-0.1C50.2,13,48.5,13,48,13l0,0l-11.4,0l-0.1,0.4c1.2,0.3,2.2,1.1,2.2,2.5v16.5
				c0,1.4-1.1,2.2-2.2,2.5l0.1,0.4h14.4l0.7-3.9l-0.4-0.1C50.4,32.5,49.4,33,47.6,33z"/>
			<path d="M10.1,21.9c-2.8-1.4-4.9-2.6-4.9-4.5c0-1.8,1.4-3,3.6-3c2.3,0,3.6,1.8,4,3.4l0.4-0.1l0.5-3.7c0,0-2.2-1.8-4.9-1.8
				c-3.6,0-7.1,2.1-7.1,6.2c0,3.3,2.8,4.9,6.1,6.9c3,1.8,3.9,3.1,3.9,4.6c0,1.9-1.7,3.6-4.2,3.6c-2.3,0-4.3-1.4-5.4-4.1l-0.4,0.1
				l-0.7,4.2C2.7,35.1,5.3,36,7.7,36c5,0,7.8-3.4,7.8-6.9C15.5,26.8,14.6,24.2,10.1,21.9z"/>
			<path d="M81.7,21.9c-2.8-1.4-4.9-2.6-4.9-4.5c0-1.8,1.4-3,3.6-3c2.3,0,3.6,1.8,4,3.4l0.4-0.1l0.5-3.7c0,0-2.2-1.8-4.9-1.8
				c-3.6,0-7.1,2.1-7.1,6.2c0,3.3,2.8,4.9,6.1,6.9c3,1.8,3.9,3.1,3.9,4.6c0,1.9-1.7,3.6-4.2,3.6c-2.3,0-4.3-1.4-5.4-4.1l-0.4,0.1
				l-0.7,4.2c1.8,1.2,4.4,2.1,6.7,2.1c5,0,7.8-3.4,7.8-6.9C87.1,26.8,86.2,24.2,81.7,21.9z"/>
			<path d="M72.1,12.9C71.7,13,70,13,69.5,13H56.1c-0.5,0-2.2,0-2.6-0.1L53.4,13l-0.7,3.8l0.4,0.1c0.5-0.9,1.4-1.6,2.7-1.6h4.8v17.1
				c0,1.4-1.1,2.2-2.2,2.5l0.1,0.4h8.1l0.1-0.4c-1.2-0.3-2.2-1.1-2.2-2.5V15.3h4c1.7,0,2.4,0.6,2.6,1.6l0.4-0.1l0.7-3.8h0L72.1,12.9
				z"/>
			<path d="M133.8,13.4c-0.9,0.2-1.6,1-1.6,2.1V36h-0.7l-14.9-18.1l-0.1,0.1c0,0,0.2,0.3,0.2,0.9v13.6c0,1.4,1.1,2.2,2.2,2.5
				l-0.1,0.4h-6.6l-0.1-0.4c1.2-0.3,2.2-1.1,2.2-2.5V16c0-1.4-1.1-2.2-2.2-2.5l0.1-0.4h2.5c0.5,0,2.2,0,2.6-0.1L130,28.3l0.1-0.1
				c0,0-0.2-0.3-0.2-0.9V16c0-1.4-1.1-2.2-2.2-2.5l0.1-0.4h6L133.8,13.4z"/>
			<path d="M34.9,12.9C34.5,13,32.8,13,32.3,13H18.9c-0.5,0-2.2,0-2.6-0.1L16.2,13l-0.7,3.8l0.4,0.1c0.5-0.9,1.4-1.6,2.7-1.6h4.8
				v17.1c0,1.4-1.1,2.2-2.2,2.5l0.1,0.4h8.1l0.1-0.4c-1.2-0.3-2.2-1.1-2.2-2.5V15.3h4c1.7,0,2.4,0.6,2.6,1.6l0.4-0.1l0.7-3.8h0
				L34.9,12.9z"/>
		</g>
		<path d="M139.1,33.3c0,1.7-1.3,2.7-2.8,2.7s-2.8-1.1-2.8-2.7c0-1.7,1.3-2.7,2.8-2.7S139.1,31.6,139.1,33.3z M138.7,33.3
			c0-1.5-1.1-2.4-2.4-2.4c-1.3,0-2.4,0.9-2.4,2.4c0,1.5,1.1,2.4,2.4,2.4C137.6,35.7,138.7,34.7,138.7,33.3z M136.8,33.4l0.8,1.3H137
			l-0.7-1.3h-0.5v1.3h-0.5v-3h1c0.7,0,1,0.3,1,0.9C137.4,33,137.2,33.3,136.8,33.4z M135.8,33h0.6c0.4,0,0.6-0.2,0.6-0.5
			c0-0.3-0.2-0.5-0.6-0.5h-0.6V33z"/>
	</g>
	<g>
		<path d="M44.2,46.1l0.8-0.4c0.2,0.6,0.6,1.1,1.5,1.1c0.6,0,1.1-0.2,1.1-0.8c0-0.5-0.3-0.7-0.9-0.8l-0.8-0.2
			c-0.9-0.2-1.4-0.6-1.4-1.6c0-0.9,0.8-1.6,2-1.6c1,0,1.9,0.4,2.1,1.3l-0.8,0.4c-0.2-0.6-0.6-1-1.4-1c-0.6,0-1,0.3-1,0.7
			c0,0.4,0.2,0.7,0.8,0.8l0.8,0.2c0.9,0.2,1.5,0.6,1.5,1.6c0,0.9-0.7,1.7-2.1,1.7C45.2,47.6,44.4,47,44.2,46.1z"/>
		<path d="M49.9,47.5V42h1v5.5H49.9z"/>
		<path d="M52.7,42h1.1l2.1,3.6c0.1,0.2,0.3,0.5,0.3,0.7h0c0-0.2,0-0.4,0-0.7V42h0.9v5.5H56l-2.1-3.6c-0.1-0.3-0.2-0.5-0.3-0.7h0
			c0,0.2,0,0.4,0,0.7v3.6h-0.9V42z"/>
		<path d="M58.5,44.8c0-1.7,0.9-2.9,2.6-2.9c1.4,0,2.1,0.8,2.3,1.9l-1,0.1c-0.1-0.8-0.5-1.3-1.3-1.3c-1,0-1.5,0.8-1.5,2
			c0,1.2,0.5,2,1.5,2c0.7,0,1.2-0.5,1.3-1.2l1,0.2c-0.2,1.1-1,1.9-2.3,1.9C59.3,47.6,58.5,46.4,58.5,44.8z"/>
		<path d="M68.3,46.7v0.8h-3.6V42h3.6v0.8h-2.6v1.5h2.4v0.8h-2.4v1.6H68.3z"/>
		<path d="M72.9,43.5c-0.2,0.2-0.6,0.3-0.9,0.3h-0.2V43h0.2c0.6,0,1-0.3,1.2-0.9h0.8v5.4h-0.9V43.5z"/>
		<path d="M79.4,46.1c0,0.9-0.8,1.6-2,1.6c-1.2,0-2.1-0.6-2.1-1.5c0-0.7,0.3-1.1,1.1-1.4c-0.6-0.3-0.9-0.7-0.9-1.3
			c0-0.9,0.7-1.4,1.8-1.4c1.1,0,1.8,0.5,1.8,1.4c0,0.6-0.3,1-0.9,1.2C79.1,44.9,79.4,45.3,79.4,46.1z M78.5,46
			c0-0.4-0.3-0.7-0.9-0.9L77.1,45c-0.6,0.2-0.8,0.5-0.8,1c0,0.6,0.4,0.9,1.1,0.9C78.1,46.9,78.5,46.6,78.5,46z M76.4,43.5
			c0,0.4,0.3,0.7,0.9,0.8l0.3,0.1c0.5-0.2,0.7-0.5,0.7-0.9c0-0.5-0.3-0.8-0.9-0.8C76.8,42.7,76.4,43,76.4,43.5z"/>
		<path d="M84.3,45.7c0,1.1-0.8,1.9-1.9,1.9c-1.3,0-2-0.9-2-2.7c0-1.8,0.8-2.9,2.1-2.9c1,0,1.6,0.5,1.7,1.4l-0.9,0.2
			c-0.1-0.5-0.4-0.8-0.8-0.8c-0.7,0-1.1,0.6-1.2,1.8c0.3-0.5,0.7-0.7,1.3-0.7C83.7,43.9,84.3,44.6,84.3,45.7z M83.4,45.8
			c0-0.7-0.4-1.1-1-1.1c-0.5,0-0.9,0.3-1.1,0.9c0.1,0.8,0.5,1.3,1.1,1.3C83,46.9,83.4,46.4,83.4,45.8z"/>
		<path d="M85.3,46.2l0.9-0.1c0.1,0.5,0.4,0.8,1,0.8c0.6,0,1-0.4,1-1.1c0-0.7-0.3-1.2-1-1.2c-0.5,0-0.8,0.3-1,0.8l-0.9-0.1l0.3-3.1
			h3.2v0.8h-2.5l-0.2,1.5c0.3-0.4,0.7-0.6,1.2-0.6c1,0,1.7,0.7,1.7,1.9c0,1.2-0.8,1.9-2,1.9C86.2,47.6,85.5,47.1,85.3,46.2z"/>
	</g>
</g>
</svg>
