<?xml version="1.0" encoding="utf-8"?>
<!-- Generator: Adobe Illustrator 24.2.0, SVG Export Plug-In . SVG Version: 6.00 Build 0)  -->
<svg version="1.1" id="Calque_1" xmlns="http://www.w3.org/2000/svg" xmlns:xlink="http://www.w3.org/1999/xlink" x="0px" y="0px"
	 viewBox="0 0 140 60" style="enable-background:new 0 0 140 60;" xml:space="preserve">
<g>
	<path d="M24.4,7.4c-12.2,0-19,12.1-20.7,22.8C2,41.1,4.8,53.1,17.1,53.1c12.2,0,19-12.1,20.7-22.8C39.5,19.5,36.6,7.4,24.4,7.4z
		 M25.5,30.3C25,33,23.4,42,18.9,42c-4.6,0-3.3-9-2.9-11.7c0.4-2.7,2-11.7,6.6-11.7C27.2,18.6,25.9,27.5,25.5,30.3z"/>
	<path d="M61.9,29.8l0-0.1c5.1,0,9-3.9,9.8-8.8c1.5-9.5-6.3-12.6-13.4-12.6H44.1l-7.1,44.2h16.2c10.8,0,15.2-7.1,16.1-12.6
		C70.3,33.9,67.8,30.2,61.9,29.8z M57.4,38.5c-0.5,3-3.1,4.3-5.7,4.3h-1l1.4-8.5h1C55.7,34.3,57.9,35.6,57.4,38.5z M59.6,21.5
		c-0.5,2.9-2.9,3.9-5.4,3.9h-0.7l1.2-7.6h1.2C58.3,17.8,60,18.9,59.6,21.5z"/>
	<polygon points="70.2,52.4 92.6,52.4 94.3,41.9 83.9,41.9 85,35.2 94.3,35.2 96,24.8 86.7,24.8 87.6,18.6 98,18.6 99.7,8.2 
		77.2,8.2 	"/>
	<polygon points="121.7,8.2 115.3,21.9 115.2,21.9 113.3,8.2 100.7,8.2 107.7,33.6 104.7,52.4 116.7,52.4 119.7,33.6 134.2,8.2 	"/>
	<path d="M126.2,43.4c-1.2,0-2.3,0.4-3.1,1.3c-0.9,0.9-1.3,1.9-1.3,3.2c0,1.2,0.4,2.3,1.3,3.2c0.9,0.9,1.9,1.3,3.2,1.3
		c1.2,0,2.3-0.4,3.2-1.3c0.9-0.9,1.3-1.9,1.3-3.2c0-1.2-0.4-2.3-1.3-3.2C128.5,43.9,127.4,43.4,126.2,43.4z M128.9,50.6
		c-0.7,0.8-1.7,1.1-2.7,1.1c-1.1,0-2-0.4-2.7-1.1c-0.7-0.8-1.1-1.7-1.1-2.7c0-1.1,0.4-2,1.1-2.7c0.8-0.8,1.7-1.1,2.7-1.1
		c1.1,0,2,0.4,2.7,1.1c0.7,0.7,1.1,1.7,1.1,2.7C130.1,49,129.7,49.9,128.9,50.6z"/>
	<path d="M128.2,46.8c0-0.6-0.3-1-0.8-1.2c-0.3-0.1-0.7-0.2-1.3-0.2h-1.7v4.9h0.8v-1.9h0.7c0.5,0,0.8,0.1,1,0.2
		c0.3,0.2,0.5,0.6,0.5,1.1v0.4l0,0.2c0,0,0,0,0,0.1c0,0,0,0,0,0h0.8l0-0.1c0,0,0-0.1,0-0.3c0-0.1,0-0.3,0-0.4v-0.4
		c0-0.2-0.1-0.5-0.3-0.8c-0.2-0.3-0.5-0.4-0.8-0.5c0.3,0,0.5-0.1,0.7-0.2C128.1,47.6,128.2,47.3,128.2,46.8z M126.9,47.7
		c-0.2,0.1-0.5,0.1-0.8,0.1h-0.8V46h0.7c0.5,0,0.8,0.1,1.1,0.2c0.2,0.1,0.3,0.4,0.3,0.7C127.4,47.3,127.2,47.5,126.9,47.7z"/>
</g>
</svg>
