<?xml version="1.0" encoding="utf-8"?>
<!-- Generator: Adobe Illustrator 24.2.0, SVG Export Plug-In . SVG Version: 6.00 Build 0)  -->
<svg version="1.1" id="Calque_1" xmlns="http://www.w3.org/2000/svg" xmlns:xlink="http://www.w3.org/1999/xlink" x="0px" y="0px"
	 viewBox="0 0 140 60" style="enable-background:new 0 0 140 60;" xml:space="preserve">
<path d="M78.5,13.7c-0.3,0-0.5,0.2-0.6,0.5c0,0.1,0,20.9,0,20.9c0,2.9-0.6,3.7-0.9,4c-0.4,0.3-1.6,0.8-5.4,0.8
	c-3.7,0-4.9-0.5-5.3-0.8c-0.4-0.3-0.9-1.1-0.9-3.8v-21c0-0.3-0.2-0.6-0.5-0.6h-6.2c-0.3,0-0.6,0.2-0.6,0.6v21.1
	c0,4.5,0.9,7.4,2.8,8.9c1.8,1.4,5.4,2.1,11,2.1c5.3,0,8.8-0.7,10.6-2.3c1.8-1.5,2.7-4.5,2.7-9.1V14.2c0-0.3-0.2-0.6-0.5-0.6H78.5z
	 M35.7,13.7c-0.3,0-0.6,0.3-0.6,0.6v12l-11.8,0l0-12c0-0.3-0.3-0.6-0.6-0.6h-6.1c-0.3,0-0.6,0.3-0.6,0.6v31.2c0,0.3,0.3,0.6,0.6,0.6
	h6.1c0.3,0,0.6-0.3,0.6-0.6V32.8l11.8,0l0,12.7c0,0.3,0.3,0.6,0.6,0.6h6.1c0.3,0,0.6-0.3,0.6-0.6V14.3c0-0.3-0.2-0.6-0.5-0.6H35.7z
	 M101.4,13.7c-0.3,0-0.6,0.3-0.6,0.6v31.2c0,0.3,0.3,0.6,0.6,0.6h6.1c0.3,0,0.6-0.3,0.6-0.6V32.8h10.5c0.3,0,0.6-0.3,0.6-0.6v-5.3
	c0-0.3-0.3-0.6-0.6-0.6h-10.5v-6.1h14c0.3,0,0.6-0.3,0.6-0.6l0-5.3c0-0.3-0.2-0.6-0.5-0.6L101.4,13.7L101.4,13.7z"/>
</svg>
