<?xml version="1.0" encoding="utf-8"?>
<!-- Generator: Adobe Illustrator 24.0.1, SVG Export Plug-In . SVG Version: 6.00 Build 0)  -->
<svg version="1.1" id="Laulhere" xmlns="http://www.w3.org/2000/svg" xmlns:xlink="http://www.w3.org/1999/xlink" x="0px" y="0px"
	 width="140px" height="60px" viewBox="0 0 140 60" enable-background="new 0 0 140 60" xml:space="preserve">
<g>
	<path d="M2,18h3.2v7.1h6.2V18h3.2v17.4h-3.2v-7.3H5.2v7.3H2V18z"/>
	<path d="M43.1,18h5.3c2,0,3.2,0.4,4.2,1.2c1,0.8,2,2.2,2,4.2c0,1.1-0.4,3-1.7,4.2c-1,1-2,1.2-2.9,1.4l4.7,6.4h-3.9l-4.6-6.6l0,0
		v6.6H43V18H43.1z M46.3,26.3h2.1c2.6,0,3.1-1.8,3.1-2.7c0-1-0.6-2.6-3.1-2.6h-2.1V26.3z"/>
	<path d="M60.8,18H64v17.4h-3.2V18z"/>
	<path d="M74.1,21h-5.3v-3h13.7v3h-5.3v14.4H74V21H74.1z"/>
	<path d="M90.8,18h2.5l7.3,17.4H97l-1.9-4.5H89l-1.9,4.5h-3.5L90.8,18z M90,27.9h4l-2-5.3l0,0L90,27.9z"/>
	<path d="M110.8,26.5h11.3v0.4c0,4.9-4.3,8.8-9.2,8.8c-5,0-9.3-3.8-9.3-9c0-5.1,4.3-9,9.2-9c4.4,0,7.5,3,8.4,5.4h-3.8
		c-0.8-1.1-2.3-2.4-4.6-2.4c-3.9,0-6,3.3-6,6.1c0,2.7,2,6,6.1,6c2.1,0,4.1-1.2,5.1-3.2h-7.3v-3.1H110.8z"/>
	<path d="M127.2,18h11.7v3h-8.5v4.2h8.2v3h-8.2v4.1h8.5v3h-11.7V18z"/>
	<g>
		<path d="M26.2,14.5l4.7-2.6l1.3,2.5l-4.8,2.3L26.2,14.5z"/>
		<path d="M23.4,18h11.7v3h-8.5v4.2h8.2v3h-8.2v4.1h8.5v3H23.4V18z"/>
	</g>
</g>
<g>
	<g>
		<g>
			<path d="M49.2,45.9l-0.1,2.4h-6.8v-0.4c0.1,0,0.3,0,0.4,0c0.2,0,0.3,0,0.3-0.1c0.1,0,0.2-0.1,0.3-0.2c0-0.1,0.1-0.2,0.1-0.3V42
				c0-0.1,0-0.2-0.1-0.3c0-0.1-0.1-0.2-0.3-0.2c-0.1,0-0.2-0.1-0.4-0.1s-0.3-0.1-0.4-0.1v-0.4h4.1v0.4c-0.1,0-0.2,0-0.4,0
				s-0.3,0-0.4,0.1c-0.1,0-0.2,0.1-0.3,0.2c0,0.1-0.1,0.2-0.1,0.3v4.9c0,0.2,0,0.4,0,0.5s0.1,0.2,0.2,0.3c0.1,0.1,0.2,0.1,0.4,0.1
				s0.4,0,0.7,0s0.6,0,0.8-0.1c0.3,0,0.5-0.1,0.6-0.2c0.2-0.2,0.4-0.4,0.5-0.8c0.2-0.3,0.3-0.6,0.4-0.9h0.5V45.9z"/>
			<path d="M59.8,48.3h-4v-0.4c0.2,0,0.4,0,0.7-0.1s0.4-0.1,0.4-0.2v-0.1v-0.1l-0.6-1.5h-2.6c-0.1,0.1-0.1,0.3-0.2,0.5
				c-0.1,0.2-0.1,0.4-0.2,0.5C53.1,47,53,47.2,53,47.3s0,0.1,0,0.2c0,0.1,0.1,0.2,0.3,0.3s0.5,0.1,0.8,0.2v0.4h-3V48
				c0.1,0,0.2,0,0.4-0.1c0.1,0,0.3-0.1,0.3-0.1c0.1-0.1,0.3-0.2,0.4-0.3c0.1-0.1,0.2-0.3,0.2-0.4c0.4-1,0.8-2,1.2-2.9
				c0.4-1,0.9-2.1,1.3-3.3h1c0.7,1.7,1.2,3,1.6,4c0.4,1,0.7,1.8,1,2.4c0,0.1,0.1,0.2,0.2,0.3c0.1,0.1,0.2,0.2,0.3,0.2
				c0.1,0.1,0.2,0.1,0.3,0.1s0.2,0,0.4,0.1L59.8,48.3L59.8,48.3z M55.9,45.3l-1.1-2.7l-1.1,2.7H55.9z"/>
			<path d="M70.6,41.3c-0.1,0-0.2,0-0.4,0.1c-0.2,0-0.3,0.1-0.5,0.2c-0.1,0.1-0.2,0.2-0.3,0.5c-0.1,0.2-0.1,0.6-0.1,1v2.8
				c0,0.8-0.3,1.5-0.8,2c-0.6,0.5-1.3,0.7-2.2,0.7c-1.1,0-1.9-0.2-2.5-0.7s-0.9-1.1-0.9-2V42c0-0.1,0-0.2-0.1-0.3
				c0-0.1-0.1-0.2-0.3-0.2c-0.1,0-0.2-0.1-0.3-0.1s-0.2,0-0.3-0.1v-0.4h3.9v0.4c-0.1,0-0.2,0-0.3,0c-0.1,0-0.2,0-0.4,0.1
				c-0.1,0-0.2,0.1-0.3,0.2c0,0.1-0.1,0.2-0.1,0.3v3.8c0,0.7,0.2,1.3,0.5,1.6s0.8,0.5,1.4,0.5s1.1-0.2,1.4-0.6
				c0.3-0.4,0.5-0.9,0.5-1.6v-2.5c0-0.4,0-0.8-0.1-1s-0.2-0.4-0.3-0.5c-0.1-0.1-0.2-0.1-0.5-0.2c-0.2-0.1-0.4-0.1-0.5-0.1v-0.4h3.2
				v0.4H70.6z"/>
			<path d="M80.1,45.9L80,48.3h-6.8v-0.4c0.1,0,0.3,0,0.4,0c0.2,0,0.3,0,0.3-0.1c0.1,0,0.2-0.1,0.3-0.2c0-0.1,0.1-0.2,0.1-0.3V42
				c0-0.1,0-0.2-0.1-0.3c0-0.1-0.1-0.2-0.3-0.2c-0.1,0-0.2-0.1-0.4-0.1c-0.2,0-0.3-0.1-0.4-0.1v-0.4h4.1v0.4c-0.1,0-0.2,0-0.4,0
				c-0.2,0-0.3,0-0.4,0.1c-0.1,0-0.2,0.1-0.3,0.2c0,0.1-0.1,0.2-0.1,0.3v4.9c0,0.2,0,0.4,0,0.5s0.1,0.2,0.2,0.3s0.2,0.1,0.4,0.1
				c0.2,0,0.4,0,0.7,0c0.3,0,0.6,0,0.8-0.1c0.3,0,0.5-0.1,0.6-0.2c0.2-0.2,0.4-0.4,0.5-0.8c0.2-0.3,0.3-0.6,0.4-0.9h0.5V45.9z"/>
			<path d="M91.7,48.3h-4v-0.4c0.1,0,0.2,0,0.4,0c0.2,0,0.3,0,0.3-0.1c0.1-0.1,0.2-0.1,0.3-0.2c0-0.1,0.1-0.2,0.1-0.3v-2.6h-3.2v2.5
				c0,0.1,0,0.2,0.1,0.3s0.1,0.2,0.3,0.2c0.1,0,0.2,0.1,0.3,0.1c0.2,0,0.3,0.1,0.4,0.1v0.4h-4v-0.4c0.1,0,0.2,0,0.4,0
				c0.2,0,0.3,0,0.4-0.1c0.1,0,0.2-0.1,0.3-0.2c0-0.1,0.1-0.2,0.1-0.3V42c0-0.1,0-0.2-0.1-0.3c0-0.1-0.1-0.2-0.3-0.2
				c-0.1,0-0.2-0.1-0.4-0.1c-0.2,0-0.3-0.1-0.4-0.1v-0.4h4v0.4c-0.1,0-0.2,0-0.4,0.1c-0.2,0-0.3,0.1-0.3,0.1c-0.1,0-0.2,0.1-0.3,0.2
				c0,0.1-0.1,0.2-0.1,0.3v2.2h3.2V42c0-0.1,0-0.2-0.1-0.3c0-0.1-0.1-0.2-0.3-0.2c-0.1,0-0.2-0.1-0.4-0.1c-0.2,0-0.3-0.1-0.4-0.1
				v-0.4h4v0.4c-0.1,0-0.2,0-0.4,0c-0.1,0-0.3,0.1-0.4,0.1s-0.2,0.1-0.3,0.2c0,0.1-0.1,0.2-0.1,0.3v5.3c0,0.1,0,0.2,0.1,0.3
				c0,0.1,0.1,0.2,0.3,0.2c0.1,0,0.2,0.1,0.4,0.1c0.2,0,0.3,0,0.4,0.1L91.7,48.3L91.7,48.3z"/>
			<path d="M101.1,42.8h-0.4c-0.1-0.3-0.3-0.6-0.5-0.9c-0.2-0.3-0.5-0.5-0.7-0.5c-0.1,0-0.3,0-0.4,0c-0.2,0-0.3,0-0.5,0h-1.1v2.9
				h0.8c0.2,0,0.4,0,0.5-0.1c0.2,0,0.3-0.1,0.4-0.3c0.1-0.1,0.2-0.2,0.2-0.4c0.1-0.2,0.1-0.4,0.2-0.5h0.4v3h-0.4
				c0-0.1-0.1-0.3-0.2-0.6c-0.1-0.2-0.2-0.4-0.2-0.5c-0.1-0.1-0.3-0.2-0.4-0.3c-0.2,0-0.3-0.1-0.5-0.1h-0.8v2.1c0,0.2,0,0.4,0,0.5
				s0.1,0.2,0.2,0.3s0.2,0.1,0.4,0.1c0.2,0,0.4,0,0.6,0c0.1,0,0.3,0,0.4,0c0.2,0,0.3,0,0.5,0c0.1,0,0.3,0,0.4-0.1
				c0.1,0,0.2-0.1,0.3-0.2c0.2-0.2,0.4-0.4,0.6-0.8c0.2-0.4,0.3-0.6,0.4-0.8h0.4l-0.1,2.3h-7v-0.4c0.1,0,0.2,0,0.4,0
				c0.2,0,0.3,0,0.4-0.1s0.2-0.1,0.3-0.2c0-0.1,0.1-0.2,0.1-0.3V42c0-0.1,0-0.2-0.1-0.3c0-0.1-0.1-0.2-0.3-0.2
				c-0.1,0-0.2-0.1-0.4-0.1c-0.2,0-0.3-0.1-0.4-0.1v-0.4h6.6v1.9H101.1z M99.3,40.3l-0.2,0.2c-0.6-0.2-1-0.4-1.4-0.6
				c-0.4-0.1-0.6-0.2-0.8-0.3c-0.2-0.1-0.3-0.2-0.4-0.2c-0.1-0.1-0.1-0.2-0.1-0.4s0.1-0.3,0.2-0.4c0.1-0.1,0.3-0.1,0.6-0.1
				c0.1,0,0.3,0,0.4,0.1s0.2,0.2,0.4,0.3c0.2,0.2,0.3,0.4,0.5,0.6C98.6,39.7,98.9,40,99.3,40.3z"/>
			<path d="M112.9,48.3H110c-0.5-0.8-0.9-1.4-1.2-1.8c-0.3-0.4-0.7-1-1.2-1.6h-0.3v2.3c0,0.1,0,0.2,0.1,0.3c0,0.1,0.1,0.2,0.3,0.2
				c0.1,0,0.2,0.1,0.3,0.1c0.1,0,0.3,0,0.4,0.1v0.4h-4v-0.4c0.1,0,0.2,0,0.4,0c0.2,0,0.3,0,0.4-0.1s0.2-0.1,0.3-0.2
				c0-0.1,0.1-0.2,0.1-0.3V42c0-0.1,0-0.2-0.1-0.3c0-0.1-0.1-0.2-0.3-0.2c-0.1,0-0.2-0.1-0.4-0.1c-0.2,0-0.3-0.1-0.4-0.1v-0.4h4.2
				c0.9,0,1.6,0.1,2.1,0.4c0.5,0.3,0.7,0.7,0.7,1.3c0,0.5-0.1,0.9-0.4,1.3c-0.3,0.3-0.8,0.6-1.4,0.7c0.2,0.3,0.5,0.7,0.8,1.1
				c0.3,0.4,0.6,0.8,1,1.2c0.1,0.1,0.3,0.3,0.4,0.5c0.2,0.2,0.4,0.3,0.5,0.4c0.1,0,0.2,0,0.3,0.1c0.1,0,0.2,0,0.3,0
				C112.9,47.9,112.9,48.3,112.9,48.3z M109.4,42.8c0-0.5-0.1-0.9-0.4-1.1c-0.3-0.2-0.7-0.3-1.2-0.3h-0.4v3.1h0.4
				c0.5,0,0.9-0.1,1.2-0.4C109.2,43.8,109.4,43.4,109.4,42.8z"/>
			<path d="M121.7,42.8h-0.4c-0.1-0.3-0.3-0.6-0.5-0.9c-0.2-0.3-0.5-0.5-0.7-0.5c-0.1,0-0.3,0-0.4,0c-0.2,0-0.3,0-0.5,0h-1.1v2.9
				h0.8c0.2,0,0.4,0,0.5-0.1c0.2,0,0.3-0.1,0.4-0.3c0.1-0.1,0.2-0.2,0.2-0.4c0.1-0.2,0.1-0.4,0.2-0.5h0.4v3h-0.4
				c0-0.1-0.1-0.3-0.2-0.6c-0.1-0.2-0.2-0.4-0.2-0.5c-0.1-0.1-0.3-0.2-0.4-0.3c-0.2,0-0.3-0.1-0.5-0.1h-0.8v2.1c0,0.2,0,0.4,0,0.5
				s0.1,0.2,0.2,0.3s0.2,0.1,0.4,0.1c0.2,0,0.4,0,0.6,0c0.1,0,0.3,0,0.4,0c0.2,0,0.3,0,0.5,0c0.1,0,0.3,0,0.4-0.1
				c0.1,0,0.2-0.1,0.3-0.2c0.2-0.2,0.4-0.4,0.6-0.8c0.2-0.4,0.3-0.6,0.4-0.8h0.4l-0.1,2.3h-7v-0.4c0.1,0,0.2,0,0.4,0
				c0.2,0,0.3,0,0.4-0.1s0.2-0.1,0.3-0.2c0-0.1,0.1-0.2,0.1-0.3V42c0-0.1,0-0.2-0.1-0.3c0-0.1-0.1-0.2-0.3-0.2
				c-0.1,0-0.2-0.1-0.4-0.1c-0.2,0-0.3-0.1-0.4-0.1v-0.4h6.6v1.9H121.7z"/>
		</g>
	</g>
	<g>
		<path d="M28.4,46.2c0,0.6-0.2,1.1-0.6,1.5s-0.9,0.6-1.5,0.6c-0.3,0-0.5,0-0.7-0.1s-0.3-0.1-0.4-0.2l0,0v1.2c0,0.1,0,0.2,0.1,0.3
			c0,0.1,0.1,0.1,0.2,0.2c0.1,0,0.2,0.1,0.3,0.1s0.3,0,0.3,0v0.3H23v-0.3c0.1,0,0.2,0,0.3,0c0.1,0,0.2,0,0.2,0
			c0.1,0,0.2-0.1,0.2-0.2s0-0.2,0-0.3V45c0-0.1,0-0.2-0.1-0.2s-0.1-0.1-0.2-0.2c-0.1,0-0.1-0.1-0.2-0.1s-0.2,0-0.3,0v-0.3l2.1-0.1
			l0.1,0.1v0.5l0,0c0.2-0.2,0.4-0.3,0.6-0.4c0.2-0.1,0.5-0.2,0.7-0.2c0.6,0,1,0.2,1.4,0.6C28.3,45,28.4,45.6,28.4,46.2z M26.9,46.3
			c0-0.2,0-0.4,0-0.6c0-0.2-0.1-0.4-0.2-0.5c-0.1-0.2-0.2-0.3-0.3-0.4c-0.1-0.1-0.3-0.1-0.5-0.1s-0.3,0-0.4,0.1s-0.2,0.1-0.3,0.2
			v2.4c0,0.1,0,0.1,0.1,0.2c0,0.1,0.1,0.2,0.1,0.2c0.1,0.1,0.2,0.1,0.2,0.2c0.1,0,0.2,0.1,0.3,0.1c0.3,0,0.5-0.2,0.7-0.5
			C26.8,47.3,26.9,46.8,26.9,46.3z"/>
		<path d="M33.8,48.2c-0.1,0.1-0.3,0.1-0.4,0.1c-0.2,0-0.3,0.1-0.5,0.1c-0.3,0-0.6-0.1-0.8-0.2s-0.3-0.3-0.3-0.4l0,0
			c-0.1,0.1-0.2,0.2-0.3,0.2c-0.1,0.1-0.2,0.1-0.3,0.2c-0.1,0.1-0.3,0.1-0.4,0.1s-0.3,0-0.5,0c-0.3,0-0.6-0.1-0.8-0.3
			c-0.2-0.2-0.3-0.5-0.3-0.8c0-0.2,0-0.3,0.1-0.5c0.1-0.1,0.1-0.2,0.2-0.3s0.2-0.2,0.3-0.2c0.1-0.1,0.2-0.1,0.4-0.2
			c0.3-0.1,0.6-0.2,0.9-0.3c0.4-0.1,0.6-0.2,0.8-0.3V45c0-0.1,0-0.2,0-0.3s0-0.2-0.1-0.3c0-0.1-0.1-0.2-0.2-0.2
			c-0.1-0.1-0.2-0.1-0.3-0.1c-0.1,0-0.2,0-0.3,0.1c-0.1,0-0.2,0.1-0.2,0.1c0,0.1,0,0.1,0.1,0.3c0,0.1,0.1,0.2,0.1,0.3
			c0,0,0,0.1,0,0.2c0,0.1-0.1,0.1-0.1,0.2c-0.1,0.1-0.1,0.1-0.2,0.1s-0.2,0-0.4,0c-0.2,0-0.4-0.1-0.5-0.2c-0.1-0.1-0.2-0.3-0.2-0.4
			c0-0.2,0.1-0.3,0.2-0.4s0.3-0.2,0.5-0.3s0.4-0.2,0.6-0.2s0.4-0.1,0.6-0.1c0.3,0,0.5,0,0.8,0c0.2,0,0.4,0.1,0.6,0.2
			c0.2,0.1,0.3,0.2,0.4,0.4c0.1,0.2,0.2,0.4,0.2,0.7s0,0.7,0,1.1c0,0.4,0,0.7,0,0.9c0,0.1,0,0.2,0.1,0.3s0.1,0.1,0.2,0.2
			c0,0,0.1,0,0.2,0c0.1,0,0.2,0,0.3,0v0.6H33.8z M31.7,46c-0.2,0.1-0.3,0.1-0.5,0.2c-0.2,0.1-0.3,0.1-0.4,0.2
			c-0.1,0.1-0.2,0.2-0.2,0.3c-0.1,0.1-0.1,0.3-0.1,0.4c0,0.2,0.1,0.4,0.2,0.5s0.2,0.1,0.4,0.1c0.2,0,0.3,0,0.4-0.1s0.2-0.1,0.3-0.2
			L31.7,46z"/>
		<path d="M38.4,44.9c0,0.2-0.1,0.4-0.2,0.6c-0.1,0.2-0.3,0.2-0.5,0.2s-0.4-0.1-0.5-0.2C37.1,45.4,37,45.2,37,45c0-0.1,0-0.2,0-0.2
			c0-0.1,0-0.1,0-0.2c-0.1,0-0.3,0.1-0.4,0.1c-0.1,0.1-0.3,0.2-0.4,0.3v2.3c0,0.1,0,0.2,0,0.2c0,0.1,0.1,0.1,0.2,0.2
			c0.1,0,0.2,0.1,0.3,0.1s0.2,0,0.3,0v0.3h-2.8V48c0.1,0,0.1,0,0.2,0c0.1,0,0.1,0,0.2,0c0.1,0,0.2-0.1,0.2-0.1
			c0-0.1,0.1-0.1,0.1-0.3v-2.5c0-0.1,0-0.2-0.1-0.3c0-0.1-0.1-0.1-0.2-0.2c-0.1,0-0.1-0.1-0.2-0.1c-0.1,0-0.2,0-0.3,0v-0.3l2-0.1
			l0.1,0.1v0.6l0,0c0.2-0.2,0.4-0.4,0.6-0.5c0.2-0.1,0.4-0.2,0.7-0.2s0.5,0.1,0.6,0.2C38.3,44.4,38.4,44.6,38.4,44.9z"/>
	</g>
</g>
</svg>
